<svg viewBox="0 0 1080 1080" fill="none"
    xmlns="http://www.w3.org/2000/svg">
    <defs>
        <filter id="filter" x="-20%" y="-20%" width="140%" height="140%" filterUnits="objectBoundingBox" primitiveUnits="userSpaceOnUse" color-interpolation-filters="linearRGB">
            <feMorphology operator="dilate" radius="20 20" in="SourceAlpha" result="morphology"/>
            <feFlood flood-color="#ffffff" flood-opacity="1" result="flood"/>
            <feComposite in="flood" in2="morphology" operator="in" result="composite"/>
            <feMerge result="merge">
                <feMergeNode in="composite" result="mergeNode"/>
                <feMergeNode in="SourceGraphic" result="mergeNode1"/>
            </feMerge>
        </filter>
    </defs>
    <g id="notion-avatar" filter="url(#filter)">
        <g id="notion-avatar-face" fill="#ffffff">            <!--?xml version="1.0" encoding="UTF-8"?-->            <!-- Generator: Sketch 63.1 (92452) - https://sketch.com -->
            <title>Face/ 14</title>
            <desc>Created with Sketch.</desc>
            <g id="Face/-14" stroke="none" stroke-width="1" fill-rule="evenodd" stroke-linecap="round" stroke-linejoin="round">
                <path d="M532,379 C664.54834,379 772,486.45166 772,619 C772,642.160109 783.234546,656.244677 777.453024,678.979248 C763.583554,733.517917 758.701879,941.343666 598,909 C539.618945,897.249936 461,880 433,858 C405,836 342.170039,758.772836 320.189513,718.584987 C317.498129,718.859681 314.765451,719 312,719 C267.81722,719 232,683.18278 232,639 C232,599.134956 261.158843,566.080325 299.312086,560.00055 C325.599297,455.979213 419.809919,379 532,379 Z M295.858895,624.545187 L304.141105,655.454813" id="Path" stroke="#000000" stroke-width="24"/>
            </g>
        </g>
        <g id="notion-avatar-nose">            <!--?xml version="1.0" encoding="UTF-8"?-->
            <title>Nose/ 4</title>
            <g id="Nose/-4" stroke="none" stroke-width="1" fill="none" fill-rule="evenodd" stroke-linecap="round" stroke-linejoin="round">
                <path d="M636.843426,596.000252 C661.659687,637.453214 673.277876,666.226337 671.697992,682.319621 C670.118108,698.412905 655.181344,703.444023 626.8877,697.412976" id="Line" stroke="#000000" stroke-width="16" transform="translate(649.363766, 647.939652) rotate(1.032339) translate(-649.363766, -647.939652) "/>
            </g>
        </g>
        <g id="notion-avatar-mouth">
            <g id="Mouth/ 11">
                <path id="Path" fill-rule="evenodd" clip-rule="evenodd" d="M529 741C529 741 595 755 627 755C659 755 689 745.528 689 745.528C689 745.528 688 814 618 814C548 814 529 741 529 741Z" stroke="black" stroke-width="16" stroke-linecap="round" stroke-linejoin="round"/>
            </g>
        </g>
        <g id="notion-avatar-eyes">            <!--?xml version="1.0" encoding="UTF-8"?-->
            <title>Eyes/ 8</title>
            <g id="Eyes/-8" stroke="none" stroke-width="1" fill="none" fill-rule="evenodd">
                <path d="M570,516 C578.836556,516 586,526.745166 586,540 C586,553.254834 578.836556,564 570,564 C561.163444,564 554,553.254834 554,540 C554,526.745166 561.163444,516 570,516 Z M708,516 C716.836556,516 724,526.745166 724,540 C724,553.254834 716.836556,564 708,564 C699.163444,564 692,553.254834 692,540 C692,526.745166 699.163444,516 708,516 Z" id="Combined-Shape" fill="#000000"/>
            </g>
        </g>
        <g id="notion-avatar-eyebrows">            <!--?xml version="1.0" encoding="UTF-8"?-->
            <title>Eyebrows/ 8</title>
            <g id="Eyebrows/-8" stroke="none" stroke-width="1" fill="none" fill-rule="evenodd" stroke-linecap="round" stroke-linejoin="round">
                <g id="Group" transform="translate(530.000000, 490.000000)" stroke="#000000" stroke-width="16">
                    <path d="M64,10 C59.1947065,3.33333333 51.1947065,0 40,0 C28.8052935,0 15.4719602,3.33333333 0,10" id="Path"/>
                    <path d="M218,10 C213.194706,3.33333333 205.194706,0 194,0 C182.805294,0 169.47196,3.33333333 154,10" id="Path" transform="translate(186.000000, 5.000000) scale(-1, 1) translate(-186.000000, -5.000000) "/>
                </g>
            </g>
        </g>
        <g id="notion-avatar-glasses">            <!--?xml version="1.0" encoding="UTF-8"?-->
            <title>Glasses/ 2</title>
            <g id="Glasses/-2" stroke="none" stroke-width="1" fill="none" fill-rule="evenodd" stroke-linecap="round" stroke-linejoin="round">
                <path d="M574.189838,502.353993 C586.612079,503.247679 601.018598,506.362134 617.409394,511.697357 C622.107339,513.226543 629.521032,514.112461 639.650474,514.355109 L640.336909,514.337568 C650.115498,514.071859 657.30038,513.191789 661.891553,511.697357 C678.282349,506.362134 692.688868,503.247679 705.11111,502.353993 C722.696433,501.088862 751.030506,503.214809 790.113329,508.731836 L791.300947,508.900056 L791.300947,529.629258 C786.297933,531.828279 783.752241,534.010301 783.663873,536.175322 C781.481852,589.634841 763.639862,606 723.65829,606 C685.15235,606 666.860184,585.095985 650.56058,541.630375 C648.424017,535.932875 644.892754,533.024776 639.966791,532.906078 L639.650474,532.90229 C634.559091,532.90229 630.922389,535.811651 628.740368,541.630375 C612.440763,585.095985 594.148598,606 555.642657,606 C515.661085,606 497.819095,589.634841 495.637074,536.175322 C495.548712,534.010446 493.003357,531.828573 488.00101,529.629702 L488,530 L289,550 L293,541 L487.999,509 L488,508.900056 C527.696939,503.258104 556.426885,501.076083 574.189838,502.353993 Z M564.611618,508.971486 C532.97231,506.789465 518.789172,513.335528 512.243109,520.972603 C505.697045,528.609677 493.695928,595.161324 551.51949,598.434355 C609.343052,601.707387 614.798105,534.06473 611.525073,526.427656 C608.252042,518.790581 596.250925,511.153507 564.611618,508.971486 Z M714.580942,508.971486 C682.941634,511.153507 670.940518,518.790581 667.667486,526.427656 C664.394454,534.06473 669.849507,601.707387 727.673069,598.434355 C785.496631,595.161324 773.495514,528.609677 766.949451,520.972603 C760.403387,513.335528 746.220249,506.789465 714.580942,508.971486 Z" id="Combined-Shape" stroke="#000000" stroke-width="4" fill="#000000"/>
            </g>
        </g>
        <g id="notion-avatar-hair">
            <g id="Hairstyle/ 32">
                <path id="Path" fill-rule="evenodd" clip-rule="evenodd" d="M579.545 232.012C579.545 232.012 517.5 263.639 508.545 270.012C545.545 245.012 631.545 258.012 631.545 258.012C631.545 258.012 553.932 276.63 545.205 284.512C545.205 284.512 557.545 270.012 595.545 270.012C633.545 270.012 678.545 289.012 678.545 289.012C678.545 289.012 568.892 313.613 553.762 333.11C552.123 335.221 586 314 632 314C678 314 730 289 730 289C730 289 701.829 325.943 687 333C652.422 349.455 643.358 341.795 632 352C640.504 346.686 679.545 344.012 696 346C712.455 347.988 737 339 737 339C737 339 720.315 366.83 702 370C744.964 388.258 748 392 763 416C778 440 786.805 517 786.805 517C786.805 517 770.365 499.07 762.687 491.187C766.667 528.004 761.59 561.942 747.458 593C747.998 565.779 744.555 536.785 737.13 506.019C732.583 487.181 727 460 712.248 445.855C697.496 431.71 632 410 553 410C474 410 428.104 430.958 412 428C404.393 426.603 393.492 432.444 379.296 445.523L380.068 448.708C388.266 482.686 392.365 505.363 392.365 516.739C392.365 528.233 383.924 572.725 367.044 650.215L366 655L328.117 564.825H287.146C271.78 507.748 268.106 468.654 276.123 447.543C284.14 426.432 322.047 397.666 306 410C300 340 328 313 392 270C456 227 579.545 232.012 579.545 232.012Z" fill="black" stroke="black" stroke-width="12" stroke-linecap="round" stroke-linejoin="round"/>
            </g>
        </g>
        <g id="notion-avatar-accessories">            <!--?xml version="1.0" encoding="UTF-8"?-->
            <title>Accessories/ 0</title>
            <g id="Accessories/-0" stroke="none" stroke-width="1" fill="none" fill-rule="evenodd"/>
        </g>
        <g id="notion-avatar-details">            <!--?xml version="1.0" encoding="UTF-8"?-->
            <title>Details/ 0</title>
            <g id="Details/-0" stroke="none" stroke-width="1" fill="none" fill-rule="evenodd"/>
        </g>
        <g id="notion-avatar-beard">            <!--?xml version="1.0" encoding="UTF-8"?-->
            <title>Beard/ 0</title>
            <g id="Beard/-0" stroke="none" stroke-width="1" fill="none" fill-rule="evenodd"/>
        </g>
    </g>
</svg>